PathFileType	4	(X/Y/Z)	C:\Users\Basilio\Documents\Thesis Gigler\squatting_fais\c3dfiles\073\SLS_back_pre5\markers_experimental.trc
DataRate	CameraRate	NumFrames	NumMarkers	Units	OrigDataRate	OrigDataStartFrame	OrigNumFrames
200.000000	200.000000	4	61	mm	200.000000	961	1539
Frame#	Time	FHD			LBHD			RBHD			C7			T10			CLAV			LSHO			LUUPA			LMUPA			LDUPA			LLEP			LMEP			LRAD			LUL			LRFIN			RSHO			RUPA1			RMUPA			RDUPA			RLEP			RMEP			RUL			RUFIN			LASI			RASI			USACR			LSACR			RSACR			LTHI1			LTHI2			LTHI3			LTHI4			LLFC			LTIB1			LTIB2			LTIB3			LTIB4			LLMAL			LMMAL			LHEE			LMT1			LMT2			LMT5			RTHI			RTHI2			RTHI3			RTHI4			RLFC			RMFC			RTIB1			RTIB2			RTIB3			RTIB4			RLMAL			RMMAL			RHEE			RMT1			RMT2			RMT5			LMFC			RRAD			
		X1	Y1	Z1	X2	Y2	Z2	X3	Y3	Z3	X4	Y4	Z4	X5	Y5	Z5	X6	Y6	Z6	X7	Y7	Z7	X8	Y8	Z8	X9	Y9	Z9	X10	Y10	Z10	X11	Y11	Z11	X12	Y12	Z12	X13	Y13	Z13	X14	Y14	Z14	X15	Y15	Z15	X16	Y16	Z16	X17	Y17	Z17	X18	Y18	Z18	X19	Y19	Z19	X20	Y20	Z20	X21	Y21	Z21	X22	Y22	Z22	X23	Y23	Z23	X24	Y24	Z24	X25	Y25	Z25	X26	Y26	Z26	X27	Y27	Z27	X28	Y28	Z28	X29	Y29	Z29	X30	Y30	Z30	X31	Y31	Z31	X32	Y32	Z32	X33	Y33	Z33	X34	Y34	Z34	X35	Y35	Z35	X36	Y36	Z36	X37	Y37	Z37	X38	Y38	Z38	X39	Y39	Z39	X40	Y40	Z40	X41	Y41	Z41	X42	Y42	Z42	X43	Y43	Z43	X44	Y44	Z44	X45	Y45	Z45	X46	Y46	Z46	X47	Y47	Z47	X48	Y48	Z48	X49	Y49	Z49	X50	Y50	Z50	X51	Y51	Z51	X52	Y52	Z52	X53	Y53	Z53	X54	Y54	Z54	X55	Y55	Z55	X56	Y56	Z56	X57	Y57	Z57	X58	Y58	Z58	X59	Y59	Z59	X60	Y60	Z60	X61	Y61	Z61	

962	4.805	33.40966033935548	1342.965576171875	-740.9389648437501	-101.5131759643555	1322.1328125	-771.105895996094	-131.2357177734375	1306.896118164063	-638.8051757812501	-159.2437133789063	1238.603149414063	-704.6923828125001	-381.2471008300782	1003.27880859375	-751.1500854492189	-79.4669647216797	1106.46044921875	-700.7818603515626	-74.84373474121095	1189.083984375	-824.1115722656252	-1.915897369384766	1117.452758789063	-927.4219360351565	38.95578002929688	1126.668579101563	-900.5811767578127	56.14753341674806	1082.268798828125	-938.2378540039065	155.2266998291016	1041.979858398438	-939.367858886719	141.7920074462891	983.9276123046877	-900.936462402344	401.0488586425782	1039.274169921875	-797.585632324219	413.9512939453126	1038.631591796875	-870.9710083007815	482.6515502929689	1040.317260742188	-780.6059570312502	-81.9370803833008	1170.51416015625	-570.9549560546876	-19.27217674255371	1060.423461914063	-467.326385498047	23.16739082336426	1075.521118164063	-483.4785156250001	37.9997787475586	1022.006713867188	-461.278778076172	127.1666107177735	991.366149902344	-461.0951232910157	117.6702041625977	940.084411621094	-525.7951049804689	390.6322326660157	1014.017028808594	-506.7022094726564	471.0210266113282	1025.665161132813	-586.0183105468751	-325.2952575683594	766.8517456054689	-851.3557128906252	-341.7433166503907	813.6409301757815	-613.5531005859376	-469.9318237304689	920.2549438476565	-755.0969848632814	-489.8648986816407	894.499450683594	-779.969177246094	-500.8119506835939	905.6934204101565	-725.1253662109376	-380.9906616210938	464.5091247558595	-898.185974121094	-346.5912170410157	390.060028076172	-874.3231201171877	-307.7830505371094	395.4623107910157	-844.001159667969	-378.4567565917969	340.3453674316407	-864.7139282226565	-390.8646240234376	297.0500488281251	-864.758239746094	-565.2265014648439	232.8650817871094	-822.8001098632815	-600.6906738281251	281.5165710449219	-886.0413208007815	-608.5552368164064	245.593978881836	-860.549499511719	-689.9530639648439	250.4213104248047	-835.4128417968752	-803.0872802734377	307.5666809082032	-881.6474609375002	-786.737243652344	308.6973266601563	-793.725769042969	-828.0213012695315	376.6547241210938	-850.8406372070315	-871.7188110351565	166.3097839355469	-779.3105468750002	-868.0010986328127	157.362060546875	-816.8890380859377	-885.1457519531252	186.1452331542969	-875.677673339844	-340.8020324707032	642.2225952148439	-546.3939208984376	-276.6718139648438	625.1760253906251	-551.3961791992189	-252.850570678711	646.9251708984376	-557.6948852539064	-247.2904357910157	549.4848632812501	-574.5704956054689	-159.3804321289063	449.9284973144532	-610.0114135742189	-159.80810546875	457.3338928222657	-736.2582397460939	-180.8014221191407	305.8027648925782	-718.3270874023439	-233.5807647705079	233.7792510986329	-657.7911987304689	-216.2873535156251	227.7920074462891	-702.0777587890626	-256.7253417968751	202.1229858398438	-735.2698364257814	-351.5967712402344	94.79717254638673	-688.2719726562501	-342.3283996582032	128.7978057861328	-773.669128417969	-430.1268920898439	83.37673950195314	-744.4119262695314	-205.9373779296876	55.05928421020509	-760.2512817382814	-205.9700317382813	50.89168930053712	-718.9489135742189	-248.6759033203126	34.04310607910157	-670.2839355468751	-410.1672973632814	304.0481262207032	-728.9385375976564	387.1020812988282	1008.513977050781	-588.8789672851564	
963	4.81	32.8641700744629	1344.122314453125	-741.1016845703126	-101.835807800293	1323.216918945313	-771.1796875000002	-131.515365600586	1307.874877929688	-638.8154907226564	-159.4413604736328	1239.620483398438	-704.8501586914064	-381.4169006347657	1004.153503417969	-751.2419433593751	-79.52597808837892	1107.742797851563	-700.9763183593751	-75.08529663085939	1190.078979492188	-824.2232055664065	-2.077136993408204	1118.57275390625	-927.5458984375002	39.04371643066407	1127.850952148438	-900.4315185546877	55.88772201538087	1083.259155273438	-938.486511230469	155.1653289794922	1043.117797851563	-939.5767822265627	141.3740539550782	985.1152954101565	-901.1037597656252	400.9178161621095	1040.4765625	-797.7423095703127	413.8175659179689	1039.896240234375	-871.0913696289065	482.4586791992189	1041.574951171875	-780.8266601562502	-82.0212860107422	1171.601928710938	-571.1614990234376	-19.33915328979493	1061.399780273438	-467.4093627929689	23.12700653076172	1076.554809570313	-483.6490478515626	37.97359848022462	1023.030334472656	-461.5167541503907	127.1190948486328	992.3901367187502	-461.1681213378907	117.5987396240235	941.0742187500002	-525.8209838867189	390.5881958007814	1015.109802246094	-506.8981323242189	471.0428466796876	1026.720092773438	-586.1104125976564	-325.2243957519532	767.7840576171876	-851.610778808594	-341.4945983886719	814.4338378906252	-613.7474365234376	-469.8492736816407	921.1558837890627	-755.1003417968751	-489.8484497070314	895.3317871093752	-780.0274658203127	-500.7222290039064	906.4573974609377	-725.0529174804689	-381.1480102539063	465.0587768554689	-897.9368896484377	-346.6316223144532	390.5618591308595	-874.160339355469	-307.9234313964844	396.1537170410157	-843.8984985351565	-378.8359069824219	341.1730957031251	-864.457214355469	-391.1812438964845	297.7544250488282	-864.4585571289065	-565.4668579101564	233.4580688476563	-822.5577392578127	-600.8480224609376	282.0030212402344	-885.754821777344	-608.9392089843751	246.1915130615235	-860.4041137695315	-690.1440429687501	250.8090515136719	-835.3098754882815	-803.3806152343752	307.8621215820313	-881.4820556640627	-787.0340576171877	309.0141906738282	-793.534606933594	-828.3629150390627	376.9227905273438	-850.6585083007815	-871.863464355469	166.4857940673828	-779.2125244140627	-868.279724121094	157.7125701904297	-816.4497680664065	-885.451354980469	186.3024139404297	-875.384948730469	-340.6918945312501	642.7838134765626	-546.4705200195314	-276.5597229003907	625.5112304687501	-551.5288696289064	-252.6897125244141	647.2260131835939	-557.8190917968751	-247.3084869384766	549.8609619140626	-574.7816772460939	-159.5778045654297	450.1820068359376	-610.2108764648439	-160.2417297363282	457.5101318359376	-736.4877929687501	-180.8680114746094	305.9822387695313	-718.5109863281251	-233.7118530273438	233.8084716796876	-657.7067871093751	-216.3915100097657	227.9114227294922	-702.1556396484376	-256.7690734863282	202.1887359619141	-735.3367309570314	-351.6004638671876	94.77867126464845	-688.2537231445314	-342.3569946289063	128.7702026367188	-773.6177368164065	-430.1439819335939	83.37949371337892	-744.4094238281251	-205.9696197509766	55.09804153442384	-760.2260742187501	-205.9632110595704	50.87889099121095	-718.9158935546876	-248.6810150146485	34.04723739624024	-670.2822265625001	-410.4630432128907	304.8852844238282	-728.6687622070314	386.7184143066407	1009.76806640625	-588.7510986328126	
964	4.815	32.65855789184571	1345.220458984375	-741.3651733398439	-102.0870208740235	1324.241821289063	-771.3767089843752	-131.6562805175782	1308.784912109375	-638.9128417968751	-159.5995330810547	1240.65673828125	-704.9786376953126	-381.4639892578126	1005.050964355469	-751.2476196289064	-79.54106903076173	1108.612670898438	-701.0242309570314	-75.12415313720705	1191.312744140625	-824.3726196289065	-2.136941194534302	1119.61767578125	-927.712341308594	38.77933883666993	1128.914184570313	-900.7915649414065	55.69213104248048	1084.393432617188	-938.5325317382815	154.8030700683594	1044.242919921875	-939.804138183594	141.1807556152344	986.1784667968752	-901.2713012695315	400.6733703613282	1041.681640625	-797.8410644531252	413.5871887207032	1041.092895507813	-871.2211914062502	482.3051757812501	1042.758056640625	-780.9211425781252	-82.14497375488283	1172.703369140625	-571.2607421875001	-19.3973617553711	1062.47900390625	-467.6095275878907	23.04423904418946	1077.579223632813	-483.7625427246095	37.95196151733399	1024.135620117188	-461.595672607422	127.1215896606446	993.4507446289065	-461.2586364746095	117.504150390625	942.1284790039065	-526.0437011718751	390.544158935547	1016.156005859375	-506.9247131347657	470.967987060547	1027.761108398438	-586.3150024414064	-325.2516784667969	768.6048583984377	-851.8174438476565	-341.0259094238282	815.3419189453127	-613.9364013671876	-469.8414001464845	921.9243774414065	-755.0524291992189	-489.7911376953126	896.0889282226565	-779.9254150390627	-500.5327453613282	907.174499511719	-724.9260864257814	-381.2123107910157	466.0175781250001	-897.7650146484377	-346.6681213378907	391.2953491210939	-874.1263427734377	-308.3969421386719	396.7471008300782	-843.473327636719	-378.9825439453126	341.8223571777344	-864.1899414062502	-391.5059204101564	298.5436401367188	-864.2523193359377	-565.7341308593751	234.0127868652344	-822.3284301757815	-601.1124267578126	282.5275268554688	-885.5679321289065	-609.2932128906251	246.7943420410157	-860.2972412109377	-690.3630981445314	251.2039794921876	-835.1267089843752	-803.7757568359377	308.2641906738282	-881.2972412109377	-787.336364746094	309.3941040039063	-793.3620605468752	-828.7278442382815	377.2227783203126	-850.4683837890627	-872.0004882812502	166.6585083007813	-779.0784912109377	-868.3259277343752	158.1105346679688	-815.6484985351565	-885.619567871094	186.54833984375	-875.1919555664065	-340.4754638671876	643.3109741210939	-546.5079345703126	-276.4817810058594	625.8670043945314	-551.6679077148439	-252.5477600097657	647.5564575195314	-558.0067749023439	-247.3372192382813	550.2283935546876	-574.9829101562501	-159.8058624267578	450.397674560547	-610.4155273437501	-160.4816589355469	457.7285156250001	-736.6915893554689	-181.0818176269532	306.0955810546876	-718.6605224609376	-233.8101501464844	233.9212341308594	-657.7567749023439	-216.5181121826172	227.9987335205079	-702.1982421875001	-256.8402099609376	202.2705993652344	-735.4030151367189	-351.6011047363282	94.78482818603517	-688.2261352539064	-342.4031066894532	128.7554168701172	-773.5716552734377	-430.1482543945314	83.36495208740236	-744.4085693359376	-205.9626007080079	55.12144470214845	-760.2617797851564	-205.9641265869141	50.87227249145509	-718.9401855468751	-248.7295989990235	34.04576110839844	-670.2738037109376	-410.6873168945314	305.6623840332032	-728.4380493164064	382.9029541015626	1009.622863769531	-584.8494873046876	
965	4.82	32.89812088012696	1346.356323242188	-741.4204711914064	-102.2499694824219	1325.423583984375	-771.4277954101565	-131.8311767578125	1309.899658203125	-639.2232055664064	-159.8545837402344	1241.636474609375	-705.0838012695314	-381.3425292968751	1005.827392578125	-751.3297119140626	-80.63405609130861	1109.427001953125	-701.6096801757814	-75.39817047119142	1192.372436523438	-824.6645507812502	-2.356839418411255	1120.656616210938	-927.9995727539065	38.63346481323243	1129.969360351563	-900.9890747070315	55.48318099975587	1085.502563476563	-938.6597290039065	154.6451721191407	1045.445678710938	-939.931091308594	141.2359924316407	987.4739379882815	-901.4634399414065	400.5224914550782	1042.896240234375	-798.046813964844	413.3518066406251	1042.2685546875	-871.3708496093752	482.1709899902345	1043.978149414063	-781.1998291015627	-82.21590423583986	1173.596069335938	-571.3524780273439	-19.406400680542	1063.512939453125	-467.7458496093751	23.0560359954834	1078.546752929688	-483.8639221191407	37.9536476135254	1025.07958984375	-461.7091674804689	127.0925827026367	994.4976196289065	-461.4114990234376	117.5774230957032	943.1468505859377	-526.2012329101564	390.6256713867189	1017.222900390625	-507.2327880859376	470.9478149414064	1028.787353515625	-586.3051147460939	-325.1975097656251	769.5430297851565	-852.0317382812502	-340.4649047851563	816.4477539062502	-614.1372680664064	-469.810272216797	922.711120605469	-755.0361938476564	-489.6772766113282	896.8489990234377	-779.8386840820315	-500.3746948242189	908.0140380859377	-724.8190307617189	-381.5598144531251	466.7330932617189	-897.912536621094	-346.8175048828126	392.098846435547	-873.9265747070315	-308.5338439941407	397.4299926757814	-843.2569580078127	-379.0927429199219	342.5538940429688	-864.0305786132815	-391.8360290527345	299.2939453125001	-864.1030883789065	-565.9548339843751	234.6785430908204	-822.0833129882815	-601.5217895507814	282.9902648925782	-885.4463500976565	-609.5889282226564	247.3776245117188	-860.0044555664065	-690.5556030273439	251.6462402343751	-835.000427246094	-804.1489868164065	308.6711120605469	-881.1217041015627	-787.6694335937502	309.7172241210938	-793.2163085937502	-829.1390380859377	377.4931640625001	-850.3256835937502	-872.154968261719	166.9265441894532	-778.9791259765627	-868.4724121093752	158.3668212890625	-815.3755493164065	-885.786071777344	186.8974151611328	-875.0491333007815	-340.2941589355469	643.8290405273439	-546.5585937500001	-276.3931274414063	626.2011108398439	-551.7723388671876	-252.391830444336	647.9030761718751	-558.1088256835939	-247.3461608886719	550.5897827148439	-575.1469116210939	-160.030258178711	450.6204528808595	-610.5344238281251	-160.7735137939453	457.8685607910157	-736.8198852539064	-181.2581634521485	306.3026428222657	-718.8262329101564	-233.9474639892579	234.0110626220704	-657.7601318359376	-216.6513824462891	228.1179809570313	-702.2589721679689	-256.9748535156251	202.3205261230469	-735.4557495117189	-351.6715393066407	94.77108764648439	-688.2854003906251	-342.3862304687501	128.7705230712891	-773.6256103515627	-430.1456298828126	83.33972167968751	-744.3659057617189	-205.9629669189454	55.13508605957033	-760.2279663085939	-205.9897918701172	50.86983489990236	-718.9849243164064	-248.6753540039063	34.0422592163086	-670.2829589843751	-410.9089660644532	306.4132080078126	-728.2628173828126	379.3784179687501	1009.669006347656	-581.3088989257814	
